<svg width="400" height="280" viewBox="0 0 400 280" fill="none" xmlns="http://www.w3.org/2000/svg">
<rect width="200" height="200" fill="#373737"/>
<rect width="200" height="200" fill="#333333"/>
<rect x="100" y="40" width="200" height="200" fill="#5C5C5C"/>
<rect x="200" y="80" width="200" height="200" fill="#7D7D7D"/>
<path d="M263.99 95.9805L290.992 166H280.982L274.781 149.887H243.189L236.988 166H226.979L253.98 95.9805H263.99ZM246.998 139.877H270.924L259.01 109.018L246.998 139.877Z" fill="white"/>
<path d="M160.58 129.99C165.235 129.99 168.816 128.737 171.322 126.23C173.829 123.724 175.082 120.143 175.082 115.488V94.4922C175.082 92.2135 174.757 90.179 174.105 88.3887C173.454 86.5983 172.494 85.0846 171.225 83.8477C169.988 82.5781 168.474 81.6178 166.684 80.9668C164.893 80.3158 162.859 79.9902 160.58 79.9902H134.994V129.99H160.58ZM124.984 140V69.9805H160.58C164.324 69.9805 167.693 70.5664 170.688 71.7383C173.715 72.8776 176.286 74.5215 178.402 76.6699C180.551 78.7858 182.195 81.3574 183.334 84.3848C184.506 87.4121 185.092 90.7812 185.092 94.4922V115.488C185.092 119.199 184.506 122.568 183.334 125.596C182.195 128.623 180.551 131.211 178.402 133.359C176.286 135.475 173.715 137.119 170.688 138.291C167.693 139.43 164.324 140 160.58 140H124.984Z" fill="white"/>
<path d="M53.9902 29.9805L80.9922 100H70.9824L64.7812 83.8867H33.1895L26.9883 100H16.9785L43.9805 29.9805H53.9902ZM36.998 73.877H60.9238L49.0098 43.0176L36.998 73.877Z" fill="white"/>
</svg>
