<svg width="493" height="332" viewBox="0 0 493 332" fill="none" xmlns="http://www.w3.org/2000/svg">
<rect x="124.5" y="2.5" width="245" height="245" fill="#333333" stroke="black" stroke-width="5"/>
<path d="M0.484375 332V275.984H31.1484C40.2109 275.984 44.7422 280.529 44.7422 289.617V297.586C44.7422 306.674 40.2109 311.219 31.1484 311.219H8.49219V332H0.484375ZM8.49219 303.211H30.7188C32.8542 303.211 34.3906 302.742 35.3281 301.805C36.2656 300.867 36.7344 299.331 36.7344 297.195V290.008C36.7344 287.872 36.2656 286.336 35.3281 285.398C34.3906 284.461 32.8542 283.992 30.7188 283.992H8.49219V303.211ZM62.8281 298.094V332H55.1719V290.398H62.8281V297.742C62.8802 296.727 63.1146 295.776 63.5312 294.891C63.9479 293.979 64.4948 293.198 65.1719 292.547C65.875 291.87 66.6823 291.349 67.5938 290.984C68.5052 290.594 69.4818 290.398 70.5234 290.398H78.6875C79.7552 290.398 80.7448 290.607 81.6562 291.023C82.5938 291.414 83.4141 291.961 84.1172 292.664C84.8203 293.341 85.3672 294.148 85.7578 295.086C86.1745 296.023 86.3828 297.026 86.3828 298.094V305.125H78.6875V298.094H62.8281ZM131.93 324.305C131.93 325.372 131.721 326.375 131.305 327.312C130.914 328.25 130.367 329.07 129.664 329.773C128.987 330.451 128.18 330.997 127.242 331.414C126.331 331.805 125.341 332 124.273 332H103.609C102.568 332 101.578 331.805 100.641 331.414C99.7031 330.997 98.8828 330.451 98.1797 329.773C97.5026 329.07 96.9557 328.25 96.5391 327.312C96.1484 326.375 95.9531 325.372 95.9531 324.305V298.094C95.9531 297.026 96.1484 296.023 96.5391 295.086C96.9557 294.148 97.5026 293.341 98.1797 292.664C98.8828 291.961 99.7031 291.414 100.641 291.023C101.578 290.607 102.568 290.398 103.609 290.398H124.273C125.341 290.398 126.331 290.607 127.242 291.023C128.18 291.414 128.987 291.961 129.664 292.664C130.367 293.341 130.914 294.148 131.305 295.086C131.721 296.023 131.93 297.026 131.93 298.094V324.305ZM103.609 298.094V324.305H124.273V298.094H103.609ZM181.031 290.398L165.914 310.711L181.734 332H172.438L161.266 316.961L150.055 332H140.758L156.617 310.711L141.5 290.398H150.758L161.266 304.461L171.734 290.398H181.031ZM198.648 290.398V332H190.953V290.398H198.648ZM190.562 274.383H199.039V282.391H190.562V274.383ZM244.859 298.094V332H237.164V298.094H219.547V332H211.891V290.398H219.547V297.742C219.599 296.727 219.833 295.776 220.25 294.891C220.667 293.979 221.214 293.198 221.891 292.547C222.594 291.87 223.401 291.349 224.312 290.984C225.224 290.594 226.201 290.398 227.242 290.398H237.164C238.18 290.398 239.143 290.594 240.055 290.984C240.966 291.349 241.773 291.87 242.477 292.547C243.18 293.198 243.74 293.979 244.156 294.891C244.599 295.776 244.833 296.727 244.859 297.742C244.911 296.727 245.133 295.776 245.523 294.891C245.94 293.979 246.487 293.198 247.164 292.547C247.867 291.87 248.674 291.349 249.586 290.984C250.497 290.594 251.474 290.398 252.516 290.398H262.438C263.505 290.398 264.508 290.607 265.445 291.023C266.383 291.414 267.19 291.961 267.867 292.664C268.57 293.341 269.117 294.148 269.508 295.086C269.924 296.023 270.133 297.026 270.133 298.094V332H262.438V298.094H244.859ZM282.984 290.398H290.641V324.305H312.086V290.398H319.781V332H312.086V324.969C312.008 325.932 311.747 326.844 311.305 327.703C310.862 328.562 310.289 329.318 309.586 329.969C308.909 330.594 308.128 331.089 307.242 331.453C306.357 331.818 305.419 332 304.43 332H290.641C289.599 332 288.609 331.805 287.672 331.414C286.734 330.997 285.914 330.451 285.211 329.773C284.534 329.07 283.987 328.25 283.57 327.312C283.18 326.375 282.984 325.372 282.984 324.305V290.398ZM365.562 298.094V332H357.867V298.094H340.25V332H332.594V290.398H340.25V297.742C340.302 296.727 340.536 295.776 340.953 294.891C341.37 293.979 341.917 293.198 342.594 292.547C343.297 291.87 344.104 291.349 345.016 290.984C345.927 290.594 346.904 290.398 347.945 290.398H357.867C358.883 290.398 359.846 290.594 360.758 290.984C361.669 291.349 362.477 291.87 363.18 292.547C363.883 293.198 364.443 293.979 364.859 294.891C365.302 295.776 365.536 296.727 365.562 297.742C365.615 296.727 365.836 295.776 366.227 294.891C366.643 293.979 367.19 293.198 367.867 292.547C368.57 291.87 369.378 291.349 370.289 290.984C371.201 290.594 372.177 290.398 373.219 290.398H383.141C384.208 290.398 385.211 290.607 386.148 291.023C387.086 291.414 387.893 291.961 388.57 292.664C389.273 293.341 389.82 294.148 390.211 295.086C390.628 296.023 390.836 297.026 390.836 298.094V332H383.141V298.094H365.562ZM453.258 275.984L474.859 332H466.852L461.891 319.109H436.617L431.656 332H423.648L445.25 275.984H453.258ZM439.664 311.102H458.805L449.273 286.414L439.664 311.102ZM492.477 275.984V332H484.469V275.984H492.477Z" fill="#333333"/>
<rect x="124.5" y="2.5" width="195" height="195" fill="#5C5C5C" stroke="black" stroke-width="5"/>
<rect x="174.5" y="52.5" width="145" height="145" fill="#7D7D7D" stroke="black" stroke-width="5"/>
<rect x="174.5" y="52.5" width="95" height="95" fill="#979797" stroke="black" stroke-width="5"/>
<rect x="224.5" y="102.5" width="45" height="45" fill="#ACACAC" stroke="black" stroke-width="5"/>
</svg>
