<svg width="119" height="79" viewBox="0 0 119 79" fill="none" xmlns="http://www.w3.org/2000/svg">
<path d="M3.29492 55.6055C2.91211 55.6055 2.54753 55.5326 2.20117 55.3867C1.86393 55.2318 1.56771 55.0312 1.3125 54.7852C1.05729 54.5299 0.856771 54.2337 0.710938 53.8965C0.565104 53.5501 0.492188 53.1855 0.492188 52.8027V47.1973C0.492188 46.8145 0.565104 46.4544 0.710938 46.1172C0.856771 45.7708 1.05729 45.4746 1.3125 45.2285C1.56771 44.9733 1.86393 44.7728 2.20117 44.627C2.54753 44.472 2.91211 44.3945 3.29492 44.3945H12.8105C13.1934 44.3945 13.5534 44.472 13.8906 44.627C14.237 44.7728 14.5378 44.9733 14.793 45.2285C15.0482 45.4746 15.2487 45.7708 15.3945 46.1172C15.5404 46.4544 15.6133 46.8145 15.6133 47.1973V49.7266H12.8105V47.1973H3.29492V52.8027H12.8105C13.1934 52.8027 13.5534 52.8757 13.8906 53.0215C14.237 53.1673 14.5378 53.3678 14.793 53.623C15.0482 53.8783 15.2487 54.179 15.3945 54.5254C15.5404 54.8626 15.6133 55.2227 15.6133 55.6055V61.1973C15.6133 61.5801 15.5404 61.9447 15.3945 62.291C15.2487 62.6283 15.0482 62.9245 14.793 63.1797C14.5378 63.4349 14.237 63.6354 13.8906 63.7812C13.5534 63.9271 13.1934 64 12.8105 64H3.02148C2.63867 64 2.27409 63.9271 1.92773 63.7812C1.59049 63.6354 1.29427 63.4349 1.03906 63.1797C0.783854 62.9245 0.583333 62.6283 0.4375 62.291C0.291667 61.9447 0.21875 61.5801 0.21875 61.1973V58.6816H3.02148V61.1973H12.8105V55.6055H3.29492ZM21.9707 44.3945L27.6719 53.5547L33.3867 44.3945H36.6406L29.0801 56.2207V64H26.2773V56.2207L18.7168 44.3945H21.9707ZM42.5332 64H39.7305V44.3945H42.5332L54.3184 59.5977V44.3945H57.1211V64H54.3184L42.5332 48.7969V64ZM78.9551 61.1973C78.9551 61.5801 78.8822 61.9447 78.7363 62.291C78.5905 62.6283 78.39 62.9245 78.1348 63.1797C77.8796 63.4349 77.5788 63.6354 77.2324 63.7812C76.8952 63.9271 76.5352 64 76.1523 64H64.9551C64.5723 64 64.2077 63.9271 63.8613 63.7812C63.5241 63.6354 63.2279 63.4349 62.9727 63.1797C62.7174 62.9245 62.5169 62.6283 62.3711 62.291C62.2253 61.9447 62.1523 61.5801 62.1523 61.1973V47.1973C62.1523 46.8145 62.2253 46.4544 62.3711 46.1172C62.5169 45.7708 62.7174 45.4746 62.9727 45.2285C63.2279 44.9733 63.5241 44.7728 63.8613 44.627C64.2077 44.472 64.5723 44.3945 64.9551 44.3945H76.1523C76.5352 44.3945 76.8952 44.472 77.2324 44.627C77.5788 44.7728 77.8796 44.9733 78.1348 45.2285C78.39 45.4746 78.5905 45.7708 78.7363 46.1172C78.8822 46.4544 78.9551 46.8145 78.9551 47.1973V61.1973ZM64.9551 47.1973V61.1973H76.1523V47.1973H64.9551ZM89.8789 64L82.3184 44.3945H85.3262L91.4238 60.5273L97.5352 44.3945H100.529L92.9688 64H89.8789ZM110.592 44.3945L118.152 64H115.35L113.613 59.4883H104.768L103.031 64H100.229L107.789 44.3945H110.592ZM105.834 56.6855H112.533L109.197 48.0449L105.834 56.6855ZM81.2876 68.4971V77.4985H86.6855V79H79.7861V68.4971H81.2876ZM93.1382 68.4971L97.1885 79H95.687L94.7568 76.583H90.0181L89.0879 79H87.5864L91.6367 68.4971H93.1382ZM90.5894 75.0815H94.1782L92.3911 70.4526L90.5894 75.0815ZM105.831 73.5215C106.051 73.5898 106.251 73.6875 106.432 73.8145C106.612 73.9414 106.766 74.105 106.893 74.3052C107.02 74.5005 107.118 74.7324 107.186 75.001C107.254 75.2695 107.289 75.5771 107.289 75.9238V76.4512C107.289 78.1504 106.439 79 104.74 79H98.9902V68.4971H104.439C106.139 68.4971 106.988 69.3491 106.988 71.0532V71.2437C106.988 71.8345 106.893 72.3179 106.703 72.6938C106.517 73.0649 106.227 73.3408 105.831 73.5215ZM100.462 74.4224V77.5278H104.696C105.091 77.5278 105.377 77.4351 105.553 77.2495C105.729 77.064 105.816 76.7734 105.816 76.3779V75.5649C105.816 75.1646 105.729 74.874 105.553 74.6934C105.377 74.5127 105.091 74.4224 104.696 74.4224H100.462ZM100.462 69.9692V72.9575H104.498C104.859 72.9429 105.118 72.8452 105.274 72.6646C105.436 72.479 105.516 72.1958 105.516 71.8149V71.1265C105.516 70.7261 105.428 70.4331 105.252 70.2476C105.077 70.062 104.791 69.9692 104.396 69.9692H100.462ZM111.039 74.5029C110.833 74.5029 110.638 74.4639 110.453 74.3857C110.272 74.3027 110.113 74.1953 109.977 74.0635C109.84 73.9268 109.732 73.7681 109.654 73.5874C109.576 73.4019 109.537 73.2065 109.537 73.0015V69.9985C109.537 69.7935 109.576 69.6006 109.654 69.4199C109.732 69.2344 109.84 69.0757 109.977 68.9438C110.113 68.8071 110.272 68.6997 110.453 68.6216C110.638 68.5386 110.833 68.4971 111.039 68.4971H116.136C116.341 68.4971 116.534 68.5386 116.715 68.6216C116.9 68.6997 117.062 68.8071 117.198 68.9438C117.335 69.0757 117.442 69.2344 117.521 69.4199C117.599 69.6006 117.638 69.7935 117.638 69.9985V71.3535H116.136V69.9985H111.039V73.0015H116.136C116.341 73.0015 116.534 73.0405 116.715 73.1187C116.9 73.1968 117.062 73.3042 117.198 73.4409C117.335 73.5776 117.442 73.7388 117.521 73.9243C117.599 74.105 117.638 74.2979 117.638 74.5029V77.4985C117.638 77.7036 117.599 77.8989 117.521 78.0845C117.442 78.2651 117.335 78.4238 117.198 78.5605C117.062 78.6973 116.9 78.8047 116.715 78.8828C116.534 78.9609 116.341 79 116.136 79H110.892C110.687 79 110.492 78.9609 110.306 78.8828C110.125 78.8047 109.967 78.6973 109.83 78.5605C109.693 78.4238 109.586 78.2651 109.508 78.0845C109.43 77.8989 109.391 77.7036 109.391 77.4985V76.1509H110.892V77.4985H116.136V74.5029H111.039Z" fill="#FEC266"/>
<rect x="15" width="20" height="20" fill="#FEC266"/>
<rect x="75" y="20" width="20" height="20" fill="#FEC266"/>
<rect x="35" y="20" width="20" height="20" fill="#FEC266"/>
<rect x="55" width="20" height="20" fill="#FEC266"/>
</svg>
